<?xml version="1.0" encoding="UTF-8"?>
<svg id="katman_2" data-name="katman 2" xmlns="http://www.w3.org/2000/svg" viewBox="0 0 205.52 127.65">
  <defs>
    <style>
      .cls-1 {
        fill: #fff;
      }

      .cls-2 {
        fill: #f24d2b;
      }
    </style>
  </defs>
  <g id="katman_1" data-name="katman 1">
    <g>
      <path class="cls-2" d="m22.69,0c15.66,0,22.69,9.15,22.69,23.62v47.23c0,14.46-7.03,23.62-22.69,23.62h-.13C6.9,94.46-.13,85.31,0,70.85V23.62C0,9.15,6.9,0,22.56,0h.13Zm0,91.15c13.8,0,19.1-8.09,19.1-20.43V23.75c0-12.34-5.31-20.43-19.1-20.43h-.13C8.89,3.32,3.58,11.41,3.58,23.75v46.97c0,12.34,5.31,20.43,18.97,20.43h.13Z"/>
      <path class="cls-2" d="m103.89,93.14h-3.85l-17.38-36.62h-16.85v36.62h-3.58V1.33h18.84c14.46,0,21.49,9.15,21.49,23.75v7.83c0,12.6-5.44,21.23-16.45,23.22l17.78,37.02Zm-38.08-40.07h15.26c12.6,0,17.91-7.96,17.91-20.3v-7.7c0-12.34-5.31-20.17-17.91-20.17h-15.26v48.16Z"/>
      <path class="cls-2" d="m154.31,1.33v3.45h-18.97v88.36h-3.58V4.78h-18.97V1.33h41.53Z"/>
      <path class="cls-2" d="m205.52,1.33v3.58h-34.76v41h30.78v3.45h-30.78v40.2h34.76v3.58h-38.34V1.33h38.34Z"/>
    </g>
    <g>
      <path class="cls-1" d="m50.93,107.9c0-4.28-1.2-6.04-4.36-6.04h-.04c-3.2,0-4.36,1.92-4.36,4.88v13.28c0,2.96,1.16,4.88,4.36,4.88h.04c3.28,0,4.36-1.92,4.36-6.04h2.84c0,6.04-1.92,8.8-7.2,8.8h-.04c-5,0-7.32-2.8-7.32-7.4v-13.76c0-4.6,2.32-7.4,7.32-7.4h.04c5.36,0,7.2,2.8,7.2,8.8h-2.84Z"/>
      <path class="cls-1" d="m64.33,99.1c5.04,0,7.32,2.8,7.32,7.4v13.76c0,4.6-2.28,7.4-7.32,7.4h-.04c-5.08-.04-7.36-2.8-7.36-7.4v-13.76c0-4.6,2.32-7.4,7.36-7.4h.04Zm0,25.8c3.2,0,4.4-1.96,4.4-4.88v-13.28c0-2.92-1.2-4.88-4.4-4.88h-.04c-3.24,0-4.4,1.96-4.4,4.88v13.28c0,2.92,1.16,4.88,4.4,4.88h.04Z"/>
      <path class="cls-1" d="m84.41,117.26l5.52-17.72h3v27.68h-2.68l.12-21.32.08-1.6-5.2,17.44h-1.68l-5.2-17.44.04,1.6.16,21.32h-2.72v-27.68h3.04l5.52,17.72Z"/>
      <path class="cls-1" d="m103.81,99.54c4.92,0,7.36,2.96,7.36,7.64v4.32c0,4.64-2.44,7.6-7.36,7.6h-3.32v8.12h-2.92v-27.68h6.24Zm4.44,7.64c0-3-1.36-4.88-4.44-4.88h-3.32v14.04h3.32c3.08,0,4.44-1.84,4.44-4.84v-4.32Z"/>
      <path class="cls-1" d="m128.45,127.21h-2.96l-1.4-6.8h-7.32l-1.48,6.8h-2.92l6.04-27.68h4.24l5.8,27.68Zm-7.92-25.72l-3.4,16.04h6.6l-3.2-16.04Z"/>
      <path class="cls-1" d="m143.09,99.54h2.76v27.68h-2.6l-8.84-21.6v21.6h-2.76v-27.68h2.6l8.84,21.6v-21.6Z"/>
      <path class="cls-1" d="m156.85,113.86l4.76-14.32h3.2l-6.48,17.12v10.56h-2.92v-10.36l-6.8-17.32h3.2l5.04,14.32Z"/>
    </g>
  </g>
</svg>